<mxfile host="app.diagrams.net" agent="Mozilla/5.0 (Macintosh; Intel Mac OS X 10_15_7) AppleWebKit/537.36 (KHTML, like Gecko) Chrome/131.0.0.0 Safari/537.36" version="25.0.3">
  <diagram name="Trang-1" id="X2TiEBYnKF3QoC4KfZxD">
    <mxGraphModel dx="2232" dy="752" grid="1" gridSize="10" guides="1" tooltips="1" connect="1" arrows="1" fold="1" page="1" pageScale="1" pageWidth="827" pageHeight="1169" math="0" shadow="0">
      <root>
        <mxCell id="0" />
        <mxCell id="1" parent="0" />
        <mxCell id="1WchirJ7fdtVC9R7SYc4-7" style="edgeStyle=orthogonalEdgeStyle;rounded=0;orthogonalLoop=1;jettySize=auto;html=1;entryX=0;entryY=0.5;entryDx=0;entryDy=0;" edge="1" parent="1" source="1WchirJ7fdtVC9R7SYc4-4" target="1WchirJ7fdtVC9R7SYc4-6">
          <mxGeometry relative="1" as="geometry" />
        </mxCell>
        <mxCell id="1WchirJ7fdtVC9R7SYc4-4" value="Admin" style="shape=umlActor;verticalLabelPosition=bottom;verticalAlign=top;html=1;outlineConnect=0;" vertex="1" parent="1">
          <mxGeometry x="-730" y="290" width="30" height="60" as="geometry" />
        </mxCell>
        <mxCell id="1WchirJ7fdtVC9R7SYc4-6" value="Quản lí người dùng" style="ellipse;whiteSpace=wrap;html=1;" vertex="1" parent="1">
          <mxGeometry x="-600" y="280" width="120" height="80" as="geometry" />
        </mxCell>
        <mxCell id="1WchirJ7fdtVC9R7SYc4-8" value="Quản lí tài khoản khách hàng" style="ellipse;whiteSpace=wrap;html=1;" vertex="1" parent="1">
          <mxGeometry x="-440" y="160" width="120" height="80" as="geometry" />
        </mxCell>
        <mxCell id="1WchirJ7fdtVC9R7SYc4-9" value="Quản lí tài khoản&amp;nbsp;&lt;div&gt;nhân viên&lt;/div&gt;" style="ellipse;whiteSpace=wrap;html=1;" vertex="1" parent="1">
          <mxGeometry x="-440" y="400" width="120" height="80" as="geometry" />
        </mxCell>
        <mxCell id="1WchirJ7fdtVC9R7SYc4-11" value="&amp;lt;&amp;lt;extend&amp;gt;&amp;gt;" style="html=1;verticalAlign=bottom;labelBackgroundColor=none;endArrow=open;endFill=0;dashed=1;rounded=0;entryX=1;entryY=0;entryDx=0;entryDy=0;exitX=0;exitY=1;exitDx=0;exitDy=0;" edge="1" parent="1" source="1WchirJ7fdtVC9R7SYc4-8" target="1WchirJ7fdtVC9R7SYc4-6">
          <mxGeometry width="160" relative="1" as="geometry">
            <mxPoint x="-610" y="300" as="sourcePoint" />
            <mxPoint x="-450" y="300" as="targetPoint" />
          </mxGeometry>
        </mxCell>
        <mxCell id="1WchirJ7fdtVC9R7SYc4-12" value="&amp;lt;&amp;lt;extend&amp;gt;&amp;gt;" style="html=1;verticalAlign=bottom;labelBackgroundColor=none;endArrow=open;endFill=0;dashed=1;rounded=0;entryX=1;entryY=1;entryDx=0;entryDy=0;exitX=0;exitY=0.5;exitDx=0;exitDy=0;" edge="1" parent="1" source="1WchirJ7fdtVC9R7SYc4-9" target="1WchirJ7fdtVC9R7SYc4-6">
          <mxGeometry width="160" relative="1" as="geometry">
            <mxPoint x="-412" y="238" as="sourcePoint" />
            <mxPoint x="-488" y="302" as="targetPoint" />
          </mxGeometry>
        </mxCell>
        <mxCell id="1WchirJ7fdtVC9R7SYc4-13" value="Xem thông tin&amp;nbsp;&lt;div&gt;tài khoản&lt;/div&gt;" style="ellipse;whiteSpace=wrap;html=1;" vertex="1" parent="1">
          <mxGeometry x="-240" y="20" width="120" height="80" as="geometry" />
        </mxCell>
        <mxCell id="1WchirJ7fdtVC9R7SYc4-14" value="Xem thông tin tài khoản" style="ellipse;whiteSpace=wrap;html=1;" vertex="1" parent="1">
          <mxGeometry x="-240" y="240" width="120" height="80" as="geometry" />
        </mxCell>
        <mxCell id="1WchirJ7fdtVC9R7SYc4-15" value="Cấp tài khoản" style="ellipse;whiteSpace=wrap;html=1;" vertex="1" parent="1">
          <mxGeometry x="-240" y="340" width="120" height="80" as="geometry" />
        </mxCell>
        <mxCell id="1WchirJ7fdtVC9R7SYc4-16" value="Phân quyền&amp;nbsp;" style="ellipse;whiteSpace=wrap;html=1;" vertex="1" parent="1">
          <mxGeometry x="-240" y="460" width="120" height="80" as="geometry" />
        </mxCell>
        <mxCell id="1WchirJ7fdtVC9R7SYc4-17" value="Cấp mật khẩu mới" style="ellipse;whiteSpace=wrap;html=1;" vertex="1" parent="1">
          <mxGeometry x="-240" y="580" width="120" height="80" as="geometry" />
        </mxCell>
        <mxCell id="1WchirJ7fdtVC9R7SYc4-18" value="&amp;lt;&amp;lt;extend&amp;gt;&amp;gt;" style="html=1;verticalAlign=bottom;labelBackgroundColor=none;endArrow=open;endFill=0;dashed=1;rounded=0;entryX=0.5;entryY=0;entryDx=0;entryDy=0;exitX=0;exitY=0.5;exitDx=0;exitDy=0;" edge="1" parent="1" source="1WchirJ7fdtVC9R7SYc4-14" target="1WchirJ7fdtVC9R7SYc4-9">
          <mxGeometry width="160" relative="1" as="geometry">
            <mxPoint x="-430" y="450" as="sourcePoint" />
            <mxPoint x="-488" y="358" as="targetPoint" />
          </mxGeometry>
        </mxCell>
        <mxCell id="1WchirJ7fdtVC9R7SYc4-19" value="&amp;lt;&amp;lt;extend&amp;gt;&amp;gt;" style="html=1;verticalAlign=bottom;labelBackgroundColor=none;endArrow=open;endFill=0;dashed=1;rounded=0;entryX=1;entryY=0;entryDx=0;entryDy=0;exitX=0;exitY=0.5;exitDx=0;exitDy=0;" edge="1" parent="1" source="1WchirJ7fdtVC9R7SYc4-15" target="1WchirJ7fdtVC9R7SYc4-9">
          <mxGeometry width="160" relative="1" as="geometry">
            <mxPoint x="-230" y="290" as="sourcePoint" />
            <mxPoint x="-370" y="410" as="targetPoint" />
          </mxGeometry>
        </mxCell>
        <mxCell id="1WchirJ7fdtVC9R7SYc4-20" value="&amp;lt;&amp;lt;extend&amp;gt;&amp;gt;" style="html=1;verticalAlign=bottom;labelBackgroundColor=none;endArrow=open;endFill=0;dashed=1;rounded=0;entryX=1;entryY=1;entryDx=0;entryDy=0;exitX=0;exitY=0.5;exitDx=0;exitDy=0;" edge="1" parent="1" source="1WchirJ7fdtVC9R7SYc4-16" target="1WchirJ7fdtVC9R7SYc4-9">
          <mxGeometry width="160" relative="1" as="geometry">
            <mxPoint x="-230" y="390" as="sourcePoint" />
            <mxPoint x="-328" y="422" as="targetPoint" />
          </mxGeometry>
        </mxCell>
        <mxCell id="1WchirJ7fdtVC9R7SYc4-21" value="&amp;lt;&amp;lt;extend&amp;gt;&amp;gt;" style="html=1;verticalAlign=bottom;labelBackgroundColor=none;endArrow=open;endFill=0;dashed=1;rounded=0;entryX=0.5;entryY=1;entryDx=0;entryDy=0;exitX=0;exitY=0.5;exitDx=0;exitDy=0;" edge="1" parent="1" source="1WchirJ7fdtVC9R7SYc4-17" target="1WchirJ7fdtVC9R7SYc4-9">
          <mxGeometry width="160" relative="1" as="geometry">
            <mxPoint x="-230" y="510" as="sourcePoint" />
            <mxPoint x="-328" y="478" as="targetPoint" />
          </mxGeometry>
        </mxCell>
        <mxCell id="1WchirJ7fdtVC9R7SYc4-22" value="TÌm kiếm tài khoản&amp;nbsp;&lt;div&gt;của khách hàng&lt;/div&gt;" style="ellipse;whiteSpace=wrap;html=1;" vertex="1" parent="1">
          <mxGeometry x="-240" y="120" width="120" height="80" as="geometry" />
        </mxCell>
        <mxCell id="1WchirJ7fdtVC9R7SYc4-23" value="&amp;lt;&amp;lt;extend&amp;gt;&amp;gt;" style="html=1;verticalAlign=bottom;labelBackgroundColor=none;endArrow=open;endFill=0;dashed=1;rounded=0;entryX=1;entryY=0;entryDx=0;entryDy=0;exitX=0;exitY=0.5;exitDx=0;exitDy=0;" edge="1" parent="1" source="1WchirJ7fdtVC9R7SYc4-13" target="1WchirJ7fdtVC9R7SYc4-8">
          <mxGeometry width="160" relative="1" as="geometry">
            <mxPoint x="-230" y="290" as="sourcePoint" />
            <mxPoint x="-370" y="410" as="targetPoint" />
          </mxGeometry>
        </mxCell>
        <mxCell id="1WchirJ7fdtVC9R7SYc4-24" value="&amp;lt;&amp;lt;extend&amp;gt;&amp;gt;" style="html=1;verticalAlign=bottom;labelBackgroundColor=none;endArrow=open;endFill=0;dashed=1;rounded=0;entryX=1;entryY=0.5;entryDx=0;entryDy=0;exitX=0;exitY=0.5;exitDx=0;exitDy=0;" edge="1" parent="1" source="1WchirJ7fdtVC9R7SYc4-22" target="1WchirJ7fdtVC9R7SYc4-8">
          <mxGeometry width="160" relative="1" as="geometry">
            <mxPoint x="-230" y="70" as="sourcePoint" />
            <mxPoint x="-328" y="182" as="targetPoint" />
          </mxGeometry>
        </mxCell>
      </root>
    </mxGraphModel>
  </diagram>
</mxfile>
